<svg id="Layer_1" data-name="Layer 1" xmlns="http://www.w3.org/2000/svg" viewBox="0 0 164 24"><defs><style>.cls-1{fill:#404040;}.cls-2{fill:#2cb2f1;}.cls-3{fill:#ffe11b;}.cls-4{fill:#008323;}</style></defs><path class="cls-1" d="M119.77,12.77h-.57v-.39h1.57v.39h-.57v1.54h-.43ZM122,13.86l-.3-.41c-.09-.13-.18-.26-.25-.38h0c0,.1,0,.29,0,.42v.81h-.42V12.38h.4l.57.78.57-.78H123v1.93h-.43V13.5c0-.13,0-.32,0-.42h0c-.07.12-.16.25-.25.38Z"/><path class="cls-1" d="M17,13.33a3.87,3.87,0,0,0-3-1.24A12.38,12.38,0,0,0,9.4,13.3a3.36,3.36,0,0,0-2.95-1.22A20.37,20.37,0,0,0,0,13.58V23.75H2.8V14.59H5.64a1.94,1.94,0,0,1,1.48.6,2.71,2.71,0,0,1,.46,1.9v6.66h2.8V15.27a4.86,4.86,0,0,0,0-.68H13.2a1.84,1.84,0,0,1,1.45.6,2.67,2.67,0,0,1,.51,1.9v6.66H18V16.63A4.48,4.48,0,0,0,17,13.33Z"/><path class="cls-1" d="M51.25,13.33a3.83,3.83,0,0,0-3-1.24,12.43,12.43,0,0,0-4.62,1.21,3.34,3.34,0,0,0-2.94-1.22,20.37,20.37,0,0,0-6.45,1.5V23.75h2.79V14.59h2.85a2,2,0,0,1,1.48.6,2.71,2.71,0,0,1,.46,1.9v6.66h2.79V15.27c0-.25,0-.47,0-.68h2.84a1.87,1.87,0,0,1,1.46.6,2.67,2.67,0,0,1,.51,1.9v6.66h2.79V16.63A4.44,4.44,0,0,0,51.25,13.33Z"/><path class="cls-1" d="M26.05,12.12a5.94,5.94,0,1,1,0,11.88,5.94,5.94,0,1,1,0-11.88Zm0,9.43a3.36,3.36,0,0,0,3.37-3.49,3.38,3.38,0,1,0-6.75,0A3.36,3.36,0,0,0,26.05,21.55Z"/><path class="cls-1" d="M57.24,18.82A3.5,3.5,0,0,0,61,21.69a10.45,10.45,0,0,0,3.88-.88v2.13A8.29,8.29,0,0,1,60.73,24c-3.65,0-6.33-2.36-6.33-5.92a5.75,5.75,0,0,1,5.8-6,5.17,5.17,0,0,1,5.31,5.57,7.87,7.87,0,0,1-.07,1.13Zm5.66-1.94a2.65,2.65,0,0,0-2.72-2.49,2.93,2.93,0,0,0-2.94,2.49Z"/><path class="cls-1" d="M110.35,18.82a3.5,3.5,0,0,0,3.77,2.87,10.45,10.45,0,0,0,3.88-.88v2.13A8.29,8.29,0,0,1,113.84,24c-3.65,0-6.33-2.36-6.33-5.92a5.75,5.75,0,0,1,5.8-6,5.17,5.17,0,0,1,5.31,5.57,7.87,7.87,0,0,1-.07,1.13ZM116,16.88a2.65,2.65,0,0,0-2.72-2.49,2.93,2.93,0,0,0-2.94,2.49Z"/><path class="cls-1" d="M77.5,13.32a4,4,0,0,0-3-1.23,19.53,19.53,0,0,0-6.59,1.53V23.75h2.8V14.59h3a1.86,1.86,0,0,1,1.5.63,2.84,2.84,0,0,1,.46,1.94v6.59h2.8V16.67A4.52,4.52,0,0,0,77.5,13.32Z"/><path class="cls-1" d="M91.91,6.87a1.74,1.74,0,1,1-1.76,1.74A1.75,1.75,0,0,1,91.91,6.87ZM90.5,12.38h2.8V23.75H90.5Z"/><path class="cls-1" d="M95,12.38h3l1.62,4.16c.49,1.24,1,2.51,1.46,3.85h0c.51-1.34,1-2.51,1.51-3.83l1.68-4.18h2.84l-4.66,11.37H99.72Z"/><path class="cls-1" d="M88,14.76V12.38H84.8V8.79L82,9.65v2.73H80v2.38h2v4.87a4.56,4.56,0,0,0,.92,3.26A3.65,3.65,0,0,0,85.7,24,5,5,0,0,0,88,23.47V21.21a4.89,4.89,0,0,1-1.71.43c-1.27,0-1.5-1.06-1.5-2.33V14.76Z"/><path class="cls-2" d="M147.14,11.24A22.88,22.88,0,0,1,151,24h13V0Z"/><path class="cls-3" d="M128,1V24l19.14-12.76A23,23,0,0,0,128,1Z"/><path class="cls-4" d="M128,24h23a22.88,22.88,0,0,0-3.86-12.76Z"/></svg>